<?xml version="1.0" encoding="utf-8"?>
<!-- Generator: Adobe Illustrator 27.5.0, SVG Export Plug-In . SVG Version: 6.00 Build 0)  -->
<svg version="1.1" id="_x3C_Layer_x3E_" xmlns="http://www.w3.org/2000/svg" xmlns:xlink="http://www.w3.org/1999/xlink" x="0px"
	 y="0px" viewBox="0 0 2975 1700" style="enable-background:new 0 0 2975 1700;" xml:space="preserve">
<rect style="fill:#FFFFFF;" width="2975" height="1700"/>
<g>
	<path style="fill:#FBECDB;" d="M884.026,1519.174c0,0-409.579-370.339-178.921-870.913
		c110.663-240.16,405.375-296.518,494.712-247.372c117.794,64.802,274.03-110.26,611.726-230.457
		c253.814-90.341,828.337,93.859,641.235,660.435c-113.494,343.68,323.39,253.273,255.631,692.504L884.026,1519.174z"/>
	<g>
		<g>
			<rect x="703.782" y="1074.918" style="fill:#F9DDBF;" width="325.135" height="443.982"/>
			<rect x="1028.917" y="1074.918" style="fill:#FFF3E9;" width="252.572" height="444.001"/>
			<polygon style="fill:#ED9F4A;" points="1111.563,885.524 1005.033,1104.849 681.39,1104.849 850.122,886.325 			"/>
			<polygon style="fill:#F9DDBF;" points="1124.334,885.524 1017.806,1104.849 694.162,1104.849 862.894,886.325 			"/>
			<path style="fill:#EFCDAF;" d="M865.801,995.187h-6.799c-23.09,0-41.81,18.719-41.81,41.811v106.246h89.061v-107.604
				C906.253,1013.298,888.143,995.187,865.801,995.187z"/>
			<g>
				<polygon style="fill:#ED9F4A;" points="1316.674,1117.017 1022.898,1117.017 849.262,885.521 947.011,885.541 1137.973,885.573 
									"/>
				<polygon style="fill:#E58638;" points="1316.674,1117.017 1262.844,1117.017 947.011,885.541 1137.973,885.573 				"/>
			</g>
		</g>
		<g>
			<polygon style="fill:#ED9F4A;" points="827.616,1166.105 751.771,1322.253 521.355,1322.253 641.484,1166.676 			"/>
			<g>
				<polygon style="fill:#F9DDBF;" points="834.519,1166.105 758.677,1322.253 528.26,1322.253 648.388,1166.676 				"/>
				<path style="fill:#F9DDBF;" d="M758.174,1322.252v167.227h-76.282c-2.553-0.378-3.852-0.633-3.852-0.633
					s-38.929,0-84.984-15.796c-21.124-7.249-43.735-17.816-64.792-33.234v-117.563H758.174z"/>
				<path style="fill:#FFF3E9;" d="M952.861,1322.252v135.935c-13.908,4.052-27.351,7.659-40.315,10.856
					c-44.612,10.989-83.553,17.172-116.221,20.436h-38.151v-167.227H952.861z"/>
				<polygon style="fill:#ED9F4A;" points="974.256,1331.486 765.109,1331.486 641.481,1166.672 703.781,1166.683 847.035,1166.714 
									"/>
				<path style="fill:#EFCDAF;" d="M689.918,1356.918v132.561h-8.026c-2.553-0.378-3.852-0.633-3.852-0.633s-38.929,0-84.984-15.796
					v-114.533c0-14.353,6.139-27.273,15.94-36.265c8.758-8.059,20.447-12.966,33.29-12.966c12.644,0,24.143,4.929,32.657,12.966
					C684.167,1330.933,689.918,1343.254,689.918,1356.918z"/>
				<circle style="fill:#EFCDAF;" cx="641.484" cy="1253.361" r="10.87"/>
				<polygon style="fill:#E58638;" points="974.256,1331.486 934.563,1331.486 703.781,1166.683 847.035,1166.714 				"/>
			</g>
		</g>
	</g>
	<path style="fill:#A8D29F;" d="M2018.412,1518.918c-166.877-49.473-369.17-94.949-535.347-55.151
		c-166.176,39.797-230.024,93.496-412.517-30.046c-16.562-11.211-31.841-19.521-46.147-25.457
		c32.222-5.842,75.278-16.043,56.194-26.363c-19.898-10.763-53.193,7.633-72.444,20.491c-4.817-1.474-9.526-2.669-14.141-3.613
		c43.966-31.481,121.94-91.029,85.671-93.029c-35.782-1.975-79.041,57.776-100.156,90.839c-3.619-0.352-7.188-0.559-10.709-0.617
		c-1.87-17.176-8.746-47.603-33.996-49.499c-25.812-1.938,4.668,31.608,22.922,49.786c-98.253,6.537-164.759,118.078-371.066,47.685
		c-31.69-10.813-64.411-10.158-95.243-3.487c-19.4-42.855-77.007-159.42-124.646-147.293
		c-47.587,12.114,70.284,113.048,115.019,149.584c-5.326,1.378-10.583,2.923-15.757,4.606
		c-27.085-19.971-77.88-52.255-106.899-38.08c-28.365,13.854,42.743,33.679,89.029,44.534
		c-61.728,24.486-107.728,64.99-107.728,64.99L2018.412,1518.918z"/>
	<path style="fill:#A8D29F;" d="M2630.275,1518.964h-194.099c-10.491-8.801,7.112-28.879,25.54-30.244
		c8.004-0.596,18.09,1.054,29.623,3.501c2.678-35.491,17.941-194.923,75.404-188.528c64.627,7.193,0,70.226-18.268,107.555
		c-13.533,27.636-27.824,67.305-34.328,86.03c5.246,1.137,10.668,2.272,16.226,3.285c8.544-26.311,40.425-114.801,80.973-109.649
		c47.606,6.029,28.461,41.507-5.259,62.572c-24.77,15.48-55.178,37.505-69.616,48.133c12.235,2,25.026,3.326,37.991,3.028
		C2607.791,1503.861,2624.029,1513.705,2630.275,1518.964z"/>
	<g>
		<g>
			<path style="fill:#E8945B;" d="M1608.826,428.644c0,0,46.192,21.854,56.688,19.098c10.494-2.755,50.369-9.795,55.969-7.314
				c0,0,6.35,10.128,1.558,16.791c-4.792,6.663-43.585,24.685-57.598,25.337s-67.208-8.983-78.495-17.802L1608.826,428.644z"/>
			<path style="fill:#E8945B;" d="M1720.082,440.629c0,0,17.813-7.393,23.644,0.866c5.83,8.261,9.138,16.628,8.414,20.861
				c-0.723,4.233-12.751,6.096-17.562,2.806c-4.812-3.29-16.719-7.887-16.719-7.887L1720.082,440.629z"/>
		</g>
		<path style="fill:#163560;" d="M1805.223,1477.442c0,0-9.835,15.909-10.047,34.366c-0.047,4.108,3.306,7.453,7.414,7.453h61.299
			c5.937,0,10.315-5.583,8.853-11.336c-2.854-11.225-8.964-28.186-21.206-38.48
			C1832.003,1453.021,1805.223,1477.442,1805.223,1477.442z"/>
		<path style="fill:#163560;" d="M1708.232,1461.16c0,0-3.524,56.835-14.52,57.65c-1.463,0.108-55.771,0.108-55.771,0.108
			l-70.052-0.002c0,0,1.18-17.104,21.444-20.636c20.264-3.531,54.183-17.773,66.459-44.557
			C1668.707,1425.548,1708.232,1461.16,1708.232,1461.16z"/>
		<g>
			<path style="fill:#2B478B;" d="M1737.578,1110.053c-2.451,31.573-2.768,56.497,0.47,68.313
				c14.458,52.86-26.055,291.544-26.055,291.544c-29.867,14.286-72.282-0.151-72.282-0.151
				c2.577-33.063-13.143-329.043-27.77-509.607c-6.123-75.806-10.717-128.846-10.717-128.846l178.914-20.83
				C1780.139,810.477,1746.051,1000.394,1737.578,1110.053z"/>
			<path style="fill:#233862;" d="M1780.139,810.477c0,0-34.088,189.918-42.561,299.576l-125.637-149.9
				c-6.123-75.806-10.717-128.846-10.717-128.846L1780.139,810.477z"/>
		</g>
		<path style="fill:#2B478B;" d="M1692.374,850.977c0,0,90.565,527.352,106.147,629.466c0,0,33.908,9.469,68.553-5.203
			c0,0,4.479-245.051-7.376-318.871c-11.854-73.819,6.315-302.021-12.792-323.25
			C1827.798,811.892,1692.374,850.977,1692.374,850.977z"/>
		<path style="fill:#FFB27D;" d="M1701.703,401.285c0,0-6.949,46.865-3.906,60.864c3.043,13.998,49.604,21.606,69.081,10.042
			c19.477-11.564,13.619-15.862,13.619-15.862s-2.973-53.652-5.707-57.479C1772.056,395.023,1701.703,401.285,1701.703,401.285z"/>
		<path style="fill:#F99746;" d="M1851.535,687.286c6.162-58.877,4.582-103.184-1.225-136.516
			c-17.008-97.824-70.298-101.083-70.298-100.453c0,13.165-28.32,25.315-51.162,23.819c-19.255-1.26-31.744-15.895-31.744-23.819
			c0-0.066-0.358-0.06-1.007,0.006c-4.976,0.046-27.822,0.462-49.416,4.202c-15.658,2.703-30.648,7.149-37.688,14.48
			c-3.634,3.779-16.589,14.37-33.232,28.768c-42.389,36.656-108.67,98.016-105.739,134.58c0,0,81.929,60.164,133.85,22.45
			c-2.827,97.907-20.598,201.612-16.241,201.536c0,0,28.941,25.062,116.869,25.062c48.076,0,82.842-4.117,106.963-8.883
			c32.865-6.483,45.949-14.143,45.949-14.143C1864.736,858.267,1849.407,707.609,1851.535,687.286z"/>
		<path style="fill:#ED7D2B;" d="M1857.414,858.376c0,0-13.084,7.66-45.949,14.143c-45.43-20.122-135.604-72.129-139.127-159.455
			c-4.674-116.165,137.146-185.336,137.146-185.336s19.026,10.572,40.827,23.043c5.807,33.332,7.387,77.639,1.225,136.516
			C1849.407,707.609,1864.736,858.267,1857.414,858.376z"/>
		<path style="fill:#E8945B;" d="M1700.966,406.565c0,0,18.06,25.455,37.155,25.685c19.095,0.228,38.59-25.285,38.59-25.285
			L1700.966,406.565z"/>
		<path style="fill:#FFB27D;" d="M1699.22,405.298c4.998,3.933,16.173,9.368,25.311,12.96c6.933,2.727,14.603,2.886,21.646,0.458
			c10.537-3.632,26.492-9.313,30.535-11.751c9.563-5.797,8.947-17.531,9.438-33.845c0.588-19.31,2.533-34.475,0.378-45.606
			c-2.563-13.316-11.006-20.892-34.644-22.951c-43.394-3.766-61.471,7.1-62.228,21.648c-0.195,3.907-0.377,7.632-0.504,11.16
			C1687.415,382.74,1691,398.829,1699.22,405.298z"/>
		<path style="fill:#2C3A64;" d="M1689.395,331.572c0,0,7.103-10.476,20.459-6.368c13.354,4.108,14.724,15.521,37.548,13.695
			c22.824-1.826,28.302-12.627,32.411-7.227c4.107,5.401,6.484,37.31,6.484,37.31s45.889-104.635-47.122-104.635
			c0,0-95.852-5.79-49.78,100.571V331.572z"/>
		<path style="fill:#FFB27D;" d="M1520.395,430.671l0.123,0.071C1520.412,430.796,1520.395,430.671,1520.395,430.671z"/>
		<path style="fill:#E8945B;" d="M1734.465,752.473c0,0-12.17,9.586-29.973,9.586c0,0-18.158-20.012-33.46-39.367
			c-9.906-12.535-18.606-24.797-20.405-31.168c-4.564-16.197-89.991-20.762-100.453-32.174
			c-10.472-11.412,42.443-40.042,42.443-40.042s86.723,13.265,99.76,30.301c5.186,6.783,12.909,24.458,20.332,43.284
			C1723.93,721.368,1734.465,752.473,1734.465,752.473z"/>
		<path style="fill:#ED7D2B;" d="M1613.082,514.723c0,0,16.438-31.91,24.557-30.983c8.119,0.929-18.661,66.054-21.096,97.703
			C1614.108,613.093,1613.082,514.723,1613.082,514.723z"/>
		<path style="fill:#FFB27D;" d="M1664.514,734.405c-11.403,27.608-26.175,52.777-28.065,55.955c-0.127,0.22-0.2,0.338-0.2,0.338
			s-0.091,0-0.266,0c-2.766-0.027-26.575-0.548-28.904-10.106c0,0-0.767-33.087,0.549-59.37c0.593-11.751,1.598-22.131,3.268-27.608
			c0,0-129.139-0.867-126.866-37.394c2.265-36.528,69.778-55.856,108.589-36.911c0,0,51.464,18.697,78.552,43.401
			C1684.471,674.843,1676.291,705.92,1664.514,734.405z"/>
		<path style="fill:#2B478B;" d="M1487.871,604.996c0,0-17.193,25.271-13.162,48.85c4.032,23.578,53.088,36.178,87.417,37.679
			c0,0,98.185-22.501,82.96-61.643C1641.633,621.005,1487.871,604.996,1487.871,604.996z"/>
		<g>
			<path style="fill:#AA443E;" d="M1523.528,294.442c0,0-15.595-31.919-53.262-12.401s-0.995,93.054-20.765,111.433
				c-19.768,18.379,7.164,30.412,3.153,43.592s7.449,28.167,33.809,26.403c26.359-1.763,54.116-0.342,66.023-23.4
				c11.908-23.059,9.202-73.803,4.601-80.935C1552.487,352.002,1523.528,294.442,1523.528,294.442z"/>
			<path style="fill:#FFB27D;" d="M1584.566,469.392l-64.049-38.649c0.355-0.142,1.65-2.075,6.439-15.928
				c2.039-5.906,3.122-11.032,3.654-15.095c0.053-0.407,0.105-0.798,0.142-1.188c0.655-5.906,0.177-9.312,0.177-9.312l14.03,5.073
				l25.95,9.4c-0.302,6.581,0.62,11.21,2.021,14.385c3.388,7.716,9.702,7.769,9.88,7.769L1584.566,469.392z"/>
			<path style="fill:#ED985F;" d="M1572.932,418.078c-25.081,2.129-39.199-14.226-42.32-18.358
				c-0.462-0.603-0.692-0.939-0.692-0.939s0.302-0.089,0.834-0.249c2.04-0.603,7.573-2.27,14.207-4.238l25.95,9.4
				C1570.608,410.274,1571.53,414.903,1572.932,418.078z"/>
			<path style="fill:#FFB27D;" d="M1574.188,409.07c0,0-55.72,6.121-56.86-31.556c-1.141-37.676-9.378-54.917,29.174-58.274
				c38.553-3.356,47.658,10.529,49.93,23.276C1603.529,382.338,1589.885,407.381,1574.188,409.07z"/>
			<path style="fill:#AA443E;" d="M1549.497,337.645c-19.716-4.991-12.178,29.941-17.159,27.549
				c-5.574-2.677-15.152-2.636-13.641,4.094c1.512,6.73,3.692,9.138,4.831,13.34c1.138,4.202-0.009,12.522-4.593,10.846
				c-4.584-1.678-47.225-50.365-17.117-88.29c30.105-37.925,119.881-14.561,91.61,25.108
				C1588.457,337.268,1563.536,341.199,1549.497,337.645z"/>
			<path style="fill:#739AF0;" d="M1621.055,619.281c0,0-16.741,8.884-43.102,8.465c-16.792-0.253-52.455-7.553-75.381-15.828
				c-13.066-4.702-22.001-9.733-20.924-13.953c1.546-6.083,12.737-52.784,23.078-96.001c9.455-39.516,18.199-76.116,18.199-76.116
				s26.095,18.541,41.303,12.002c15.208-6.552,13.256-13.94,13.256-13.94s17.918-2.198,22.777-1.626
				c7.761,0.912,35.164,10.903,35.164,10.903s3.602,10.123-5.949,25.92c-7.912,13.085-15.607,15.623-15.607,15.623
				S1636.264,545.332,1621.055,619.281z"/>
			<path style="fill:#FFB27D;" d="M1537.208,556.244c0,0,16.092-3.004,22.387,1.115c6.296,4.119,8.156,10.569,3.624,13.203
				c-14.203,8.256-28.602-0.872-28.602-0.872L1537.208,556.244z"/>
			<path style="fill:#4A82D3;" d="M1502.572,611.918c-13.066-4.702-22.001-9.733-20.924-13.953
				c1.546-6.083,12.737-52.784,23.078-96.001c3.055-5.602,4.993-8.947,4.993-8.947S1529.339,582.718,1502.572,611.918z"/>
			<path style="fill:#FFB27D;" d="M1523.573,430.887c0,0-49.565,10.493-69.113,87.548c-1.914,7.542,0.064,15.588,5.275,21.364
				c8.988,9.962,28.804,24.528,74.882,29.892c5.031,0.585,5.707-12.179,5.707-12.179c-0.501,1.018-31.301-19.9-44.41-31.143
				c-2.372-2.033-2.272-6.301-0.561-8.913c4.43-6.761,11.861-18.448,14.36-24.445
				C1513.359,484.261,1537.428,434.858,1523.573,430.887z"/>
			<path style="fill:#739AF0;" d="M1522.932,425.847c0,0-29.143,2.073-52.904,33.756c0,0,8.041,29.145,45.789,36.925
				C1515.816,496.527,1539.083,444.051,1522.932,425.847z"/>
		</g>
		<path style="fill:#EBF2F9;" d="M1664.514,734.405c-11.403,27.608-26.175,52.777-28.065,55.955c-0.155,0.109-0.31,0.22-0.466,0.338
			c-2.766-0.027-26.575-0.548-28.904-10.106c0,0-0.767-33.087,0.549-59.37C1611.416,724.856,1626.041,735.701,1664.514,734.405z"/>
		<path style="fill:#EBF2F9;" d="M1734.465,752.473c0,0-12.17,9.586-29.973,9.586c0,0-18.158-20.012-33.46-39.367
			c17.218-7.441,35.404-23.847,41.677-29.799C1723.93,721.368,1734.465,752.473,1734.465,752.473z"/>
		<path style="fill:#AA443E;" d="M1672.993,826.412c-0.537,3.012-3.507,4.954-6.505,4.343c-7.136-1.455-20.037-4.211-25.387-6.158
			c-7.588-2.761-22.145-11.36-29.732-14.12c-2.608-0.949-8.878-3.481-12.933-5.13c-2.151-0.876-3.294-3.228-2.645-5.458
			c1.347-4.627,3.947-12.508,7.657-19.098c0.684-1.222,1.783-2.142,3.166-2.809c3.938,3.157,10.146,6.633,18.447,6.666
			c6.802,0.029,12.449-1.638,16.64-3.504c0.516,1.058,10.867,21.93,18.195,24.596
			C1666.493,808.139,1675.128,814.438,1672.993,826.412z"/>
		<path style="fill:#AA443E;" d="M1781.328,752.72c1.443,2.698,0.314,6.062-2.418,7.438c-6.504,3.277-18.34,9.104-23.746,10.888
			c-7.667,2.532-24.422,4.797-32.089,7.328c-2.636,0.87-9.125,2.766-13.331,3.983c-2.231,0.645-4.584-0.494-5.456-2.647
			c-1.809-4.469-4.647-12.267-5.817-19.737c-0.219-1.383,0.075-2.785,0.748-4.167c5.048,0.042,12.074-1.075,18.611-6.19
			c5.358-4.189,8.761-8.996,10.895-13.057c1.06,0.511,22.113,10.486,29.518,8.041C1764.907,742.4,1775.588,741.997,1781.328,752.72z
			"/>
		<path style="fill:#F99746;" d="M1676.848,710.979c0,0-3.716,21.536-17.721,31.451c0,0-56.869-7.824-109.812-21.217
			c-38.92-9.843-75.73-22.688-86.257-37.652c-24.869-35.295,13.01-78.259,13.01-78.259s73.01,35.231,152.055,78.397
			C1644.31,692.536,1660.734,701.712,1676.848,710.979z"/>
		<path style="fill:#FFB27D;" d="M1591.285,742.427c0,0-16.891,1.372-23.281,7.763c-6.391,6.391-16.073,24.979-9.178,32.347
			c6.896,7.368,39.762-8.783,40.675-11.434C1600.414,768.449,1591.285,742.427,1591.285,742.427z"/>
		<path style="fill:#ED7D2B;" d="M1676.848,710.979c0,0-3.716,21.536-17.721,31.451c0,0-56.869-7.824-109.812-21.217
			c24.887-21.638,57.407-32.411,78.808-37.514C1644.31,692.536,1660.734,701.712,1676.848,710.979z"/>
		<path style="fill:#F99746;" d="M1869.792,478.692c-11.366-27.002-86.137-28.034-86.137-28.034
			c-38.041,99.821-47.183,165.289-57.24,207.363c-1.627-0.156-3.153-0.161-4.548,0.006c0,0-53.438,20.851-132.865,78.532
			c0,0-8.309,22.776,6.608,41.423c0,0,136.86-30.207,175.087-52.613c0.037,0.006,0.062,0.011,0.062,0.011
			c0.384-0.243,0.76-0.489,1.142-0.733c0.581-0.358,1.135-0.715,1.663-1.068C1897.877,642.803,1886.053,517.328,1869.792,478.692z"
			/>
	</g>
	<g>
		<path style="fill:#FFB27D;" d="M1551.707,957.646c0,0,38.375,13.256,32.976,57.457c0,0-3.544,17.938-14.591,9.982
			s-5.868-6.488-21.645-17.367c-15.774-10.878-26.074-28.029-24.279-41.654L1551.707,957.646z"/>
		<path style="fill:#739AF0;" d="M1553.463,960.486l-22.729,27.576c-1.059,1.289-2.73,1.875-4.367,1.573
			c-21.306-3.913-94.634-51.176-118.652-70.464c-2.605-2.09-4.624-3.851-5.94-5.193c-8.955-9.123-39.838-54.147-61.758-94.242
			c-12.618-23.094-22.267-44.551-23.031-56.574c-2.731-42.924,19.847-102.948,19.847-102.948
			c66.792,23.244,73.817,76.573,73.817,76.573l37.028,137.807l104.878,78.388C1554.948,954.769,1555.357,958.191,1553.463,960.486z"
			/>
		<path style="fill:#4A82D3;" d="M1407.715,919.172c-2.605-2.09-4.624-3.851-5.94-5.193c-8.955-9.123-39.838-54.147-61.758-94.242
			c-2.837-24.232-0.89-46.962,9.097-62.853C1349.113,756.884,1405.892,856.791,1407.715,919.172z"/>
		<path style="fill:#FFB27D;" d="M1369.234,1316.209l-11.354,47.347l-7.025,29.308l-23.394,97.552c0,0-20.023,6.171-40.834,0
			c0,0-7.709-32.28-7.928-72.544c-0.123-21.058,1.813-44.31,7.966-66.259c2.497-8.935,5.706-17.64,9.75-25.909
			C1329.417,1258.295,1369.234,1316.209,1369.234,1316.209z"/>
		<path style="fill:#2B478B;" d="M1388.621,1518.917h-109.933c0,0-1.737-16.634,3.104-32.547c0.713-2.363,1.577-4.709,2.611-6.987
			c0,0,24.543,5.564,45.705,0c0,0,19.899,16.947,31.928,22.141C1374.057,1506.727,1387.349,1503.896,1388.621,1518.917z"/>
		<path style="fill:#E8945B;" d="M1357.88,1363.556l-7.025,29.308c-11.953,7.624-37.739,21.438-72.155,25.008
			c-0.123-21.058,1.813-44.31,7.966-66.259c10.111-5.128,20.402-7.813,29.166-6.285
			C1337.647,1349.135,1350.617,1357.109,1357.88,1363.556z"/>
		<path style="fill:#1F396D;" d="M1331.523,1518.917h-52.835c0,0-1.737-16.634,3.104-32.547
			C1295.057,1490.501,1322.049,1500.858,1331.523,1518.917z"/>
		<path style="fill:#FFB27D;" d="M1281.604,1316.209l-11.355,47.347l-7.026,29.308l-23.393,97.552c0,0-20.023,6.171-40.834,0
			c0,0-7.709-32.28-7.928-72.544c-0.124-21.058,1.813-44.31,7.966-66.259c2.496-8.935,5.706-17.64,9.751-25.909
			C1241.785,1258.295,1281.604,1316.209,1281.604,1316.209z"/>
		<path style="fill:#2B478B;" d="M1196.771,1479.379c0,0,24.541,5.57,45.706,0c0,0,19.9,16.952,31.927,22.147
			c12.025,5.196,25.317,2.373,26.583,17.393h-109.93C1191.058,1518.919,1188.764,1496.976,1196.771,1479.379z"/>
		<path style="fill:#E8945B;" d="M1270.249,1363.556l-7.026,29.308c-11.953,7.624-37.738,21.438-72.154,25.008
			c-0.124-21.058,1.813-44.31,7.966-66.259c10.11-5.128,20.402-7.813,29.165-6.285
			C1250.018,1349.135,1262.985,1357.109,1270.249,1363.556z"/>
		<path style="fill:#C65447;" d="M1392.172,1360.423c-2.64,9.769-11.507,16.548-21.628,16.548h-176.267
			c-13.272,0-23.727-11.289-22.71-24.514c1.851-24.011,8.459-63.221,11.346-89.7c1.196-11.004,1.747-19.805,1.054-24.399
			c-17.792-117.727-32.727-256.397-30.913-282.904c0.257-3.731,0.437-5.658,0.437-5.658s12.837-1.083,32.366-1.842
			c56.765-2.241,170.076-1.852,188.903,35.27c19.178,37.814,30.76,288.895,30.76,288.895
			C1408.32,1295.578,1398.419,1337.304,1392.172,1360.423z"/>
		<path style="fill:#B2443B;" d="M1182.913,1262.757c1.196-11.004,1.747-19.805,1.054-24.399
			c-17.792-117.727-32.727-256.397-30.913-282.904c0.257-3.731,0.437-5.658,0.437-5.658s12.837-1.083,32.366-1.842
			c29.364,17.297,48.477,46.768,48.477,46.768S1228.418,1215.03,1182.913,1262.757z"/>
		<path style="fill:#B2443B;" d="M1292.365,464.868c-14.081-3.521-22.261,7.574-22.261,20.638c0,13.065,10.591,23.656,23.655,23.656
			c13.065,0,23.656-15.136,23.656-28.201C1317.416,467.897,1305.041,468.036,1292.365,464.868z"/>
		<path style="fill:#C65447;" d="M1285.097,600.333c0,0-73.354-66.064-6.949-112.834c0,0,19.817-5.281,29.889-3.395
			c0,0,36.097-10.561,57.219,13.956c21.122,24.517,30.301,42.244,12.196,64.12C1359.346,584.058,1285.097,600.333,1285.097,600.333z
			"/>
		<path style="fill:#FFB27D;" d="M1200.925,999.328c0,0,18.108,36.337-16.701,64.106c0,0-15.093,10.324-17.406-3.092
			c-2.313-13.416,0.355-8.741-3.287-27.556c-3.643-18.814,1.018-38.268,11.841-46.737L1200.925,999.328z"/>
		<path style="fill:#FFB27D;" d="M1345.186,599.72c0,0-0.902,9.893-2.582,23.261c-0.817,6.531-1.814,13.898-2.991,21.343
			c-0.836,5.345-1.766,10.738-2.781,15.893l-22.71,76.702l-53.329-86.3c0,0,12.533-10.368,29.518-66.564
			c0.161-0.598,0.276-0.922,0.276-0.922L1345.186,599.72z"/>
		<path style="fill:#739AF0;" d="M1376.26,978.125c0.693,8.62-1.491,10.187-1.491,10.187s-32.792,11.887-115.258,7.776
			c-8.924-0.446-17.326-0.902-25.178-1.367c-53.148-3.134-81.573-6.409-81.573-6.409s-43.53-100.475,38.251-224.268
			c9.247-13.994,20.1-28.292,32.793-42.771c13.244-15.106,16.169-35.317,21.182-54.525c1.434-5.506-2.716-6.722-0.646-11.915
			c0,0,14.915-4.215,16.452-4.215c8.47,7.461,19.645,21.969,47.376,24.836c18.751,1.956,26.09-8.61,28.758-14.943
			c7.148,2.582,14.555,7.045,20.621,9.958c50.252,24.126,54.866,70.912,54.866,70.912s-46.179,151.848-49.046,170.808
			C1362.085,920.62,1372.681,933.731,1376.26,978.125z"/>
		<path style="fill:#E8945B;" d="M1342.604,622.981c-0.817,6.531-3.58,24.409-4.757,31.852
			c-56.471-22.017-49.075-64.921-47.537-70.778c0.161-0.598,0.276-0.922,0.276-0.922S1320.463,604.344,1342.604,622.981z"/>
		<g>
			<path style="fill:#FFB27D;" d="M1354.707,630.568c0,0-65.223,2.093-65.899-38.544c-0.679-40.638-9.554-67.735,32.061-70.79
				c41.614-3.055,49.966,12.316,53.491,25.825C1377.885,560.568,1371.656,628.977,1354.707,630.568z"/>
		</g>
		<path style="fill:#C65447;" d="M1360.404,515.146c0,0-4.093,67.847-83.606,60.567
			C1276.798,575.714,1278.489,481.754,1360.404,515.146z"/>
		<path style="fill:#C65447;" d="M1345.186,521.892c0,0,22.28,27.577,32.387,36.374
			C1377.572,558.266,1402.359,522.702,1345.186,521.892z"/>
		<path style="fill:#C65447;" d="M1345.186,521.892c0,0,20.018,33.806,30.125,42.602
			C1375.311,564.494,1402.359,522.702,1345.186,521.892L1345.186,521.892z"/>
		<path style="fill:#4A82D3;" d="M1234.333,994.721c-53.148-3.134-81.573-6.409-81.573-6.409s-43.53-100.475,38.251-224.268
			C1207.569,802.637,1246.618,905.779,1234.333,994.721z"/>
		<path style="fill:#739AF0;" d="M1260.792,650.618c0,0-63.097,12.946-91.207,45.497c-21.539,24.942-45.103,146.891-45.103,167.041
			c0,19.254,22.135,121.63,35.95,141.258c0.96,1.363,2.561,2.117,4.22,1.941l35.534-3.768c2.965-0.315,5.066-3.044,4.611-5.991
			l-19.967-129.411l70.081-124.297C1254.912,742.889,1296.235,693.91,1260.792,650.618z"/>
	</g>
	<g>
		<path style="fill:#2C3A64;" d="M1531.482,1483.882c0,0,5.346,10.432,17.188,13.012c7.46,1.625,13.848,5.507,17.823,10.951
			c3.358,4.601,0.109,11.072-5.587,11.072h-60.114c-5.12,0-9.114-4.418-8.603-9.511c0.448-4.454,0.917-9.64,1.12-13.617
			c0.444-8.681,9.14-15.67,9.14-15.67L1531.482,1483.882z"/>
		<path style="fill:#35488B;" d="M1545.098,1332.279c2.51,45.712-3.726,149.607-3.726,149.607s-4.19,11.585-30.657,14.352
			c-14.179,1.479-26.941-2.2-26.941-2.2c-5.341-24.596-10.28-48.095-14.827-70.417c-32.675-160.308-45.42-259.328-45.42-259.328
			l128.983-29.982c0,0-5.65,90.503-7.313,152.219C1544.678,1305.793,1544.55,1322.255,1545.098,1332.279z"/>
		<path style="fill:#2C3A64;" d="M1552.51,1134.311c0,0-5.65,90.503-7.313,152.219l-76.251,137.092
			c-32.675-160.308-45.42-259.328-45.42-259.328L1552.51,1134.311z"/>
		<path style="fill:#35488B;" d="M1422.831,927.033c0,0-49.91-22.718-87.671-2.844c-37.762,19.875-14.675,183.912,39.321,199.811
			l0,0C1374.481,1124.001,1475.643,1156.347,1422.831,927.033z"/>
		<path style="fill:#E8945B;" d="M1567.207,1172.55c-0.147-0.222-0.311-0.434-0.488-0.636c-1.193-1.813-3.195-6.332-4.675-9.83l0,0
			c10.039-49.15,3.282-77.571,3.282-77.571c1.192-14.31,9.738-114.274-9.938-160.586c-9.492-22.345-25.39-22.384-25.39-22.384
			s3.727,35.7,1.267,54.89c-2.258,17.615,14.536,182.693,17.309,209.676c-0.045-0.009-0.08-0.008-0.094,0.012l0.795,27.434
			l8.053-1.903c0.344-0.088,0.682-0.207,1.006-0.357l0,0l0,0c0.977-0.451,1.841-1.175,2.455-2.148l6.502-10.302
			C1568.542,1176.861,1568.427,1174.393,1567.207,1172.55L1567.207,1172.55z M1551.891,1168.1l0.343-0.203l-0.17,0.223
			C1552.041,1168.145,1551.978,1168.133,1551.891,1168.1z"/>
		<path style="fill:#2C3A64;" d="M1426.833,1483.882c0,0,5.346,10.432,17.189,13.012c7.459,1.625,13.847,5.507,17.821,10.951
			c3.359,4.601,0.109,11.072-5.586,11.072h-60.114c-5.119,0-9.114-4.418-8.603-9.511c0.447-4.454,0.917-9.64,1.12-13.617
			c0.444-8.681,9.14-15.67,9.14-15.67L1426.833,1483.882z"/>
		<path style="fill:#35488B;" d="M1468.652,718.326c-12.855,0-29.006,5.536-37.672,13.957c-9.204,8.945-18.781,9.401-25.6,19.962
			c-7.109,11.009-11.514,22.447-7.941,37.935c3.901,16.918,3.109,33.285,13.734,45.706c5.262,6.148,13.83,6.845,19.807,12.494
			c10.972,10.371,23.442,13.653,37.672,13.653c26.82,0,43.514-15.889,57.242-35.688c10.999-15.862,8.82-26.556,11.4-40.125
			C1545.415,743.513,1509.791,718.326,1468.652,718.326z"/>
		<path style="fill:#FFB27D;" d="M1506.414,890.488l-51.271,26.203l-10.272-35.568c0,0,6.531-12.31,9.485-32.474
			c1.236-8.479,1.849-18.349,1.062-29.278l41.773,21.391c0,0-0.996,3.861-1.664,9.563c-0.711,6.158-1.028,14.464,0.723,22.352
			C1497.76,879.449,1500.79,885.915,1506.414,890.488z"/>
		<path style="fill:#35488B;" d="M1387.634,1148.229c0,0-9.745,129.202-7.575,335.115c0,0,11.761,6.183,25.941,7.594
			c26.481,2.636,32.93-7.862,32.93-7.862s27.081-100.497,33.852-145.779c6.242-41.745,47.229-192.391,47.229-192.391
			L1387.634,1148.229z"/>
		<path style="fill:#F99746;" d="M1540.303,894.073c-4.561-2.137-18.893-7.924-40.402-11.464
			c0.226,7.371-1.707,14.308-14.644,16.001c-17.209,2.242-32.596-9.5-40.386-17.484c-0.001,0.001-0.002,0.001-0.003,0.001
			l0.003-0.004c0,0-12.135,1.302-26.281,4.398c-7.078,1.554-14.661,3.557-21.477,6.084c-8.268,3.04-15.407,6.833-19.217,11.501
			c-0.003,0.002-0.007,0.003-0.01,0.005l0.002,0.006c-13.24,16.249-35.022,65.185-35.022,65.185s36.258,13.441,45.408,21.285
			l0.209,1.75l5.678,47.128l-16.903,93.871c-0.145,0.823-0.227,1.646-0.227,2.451c0,6.275,4.291,11.92,10.598,13.437
			c0,0,1.452,0.242,4.129,0.612c17.919,2.517,90.66,11.193,147.692-4.29c12.822-3.483,21.274-15.726,20.21-28.983l-9.298-116.678
			c4.964-0.852,10.689-1.755,15.346-2.273c3.872-0.419,6.984-0.565,8.274-0.178C1573.982,996.433,1567.539,905.317,1540.303,894.073
			z"/>
		<path style="fill:#ED7D2B;" d="M1432.684,1067.228c-0.722,32.754-22.184,71.236-40.926,81.607
			c-2.677-0.37-4.129-0.612-4.129-0.612c-6.307-1.517-10.598-7.161-10.598-13.437c0-0.806,0.082-1.628,0.227-2.451l16.903-93.871
			l-5.678-47.128c0.274-0.822,0.42-1.259,0.42-1.259S1433.958,1009.366,1432.684,1067.228z"/>
		<path style="fill:#ED7D2B;" d="M1565.708,996.61c-4.773,0.532-15.373,2.277-15.373,2.277l-5.368-48.874
			C1544.967,950.014,1562.902,984.465,1565.708,996.61z"/>
		<path style="fill:#35488B;" d="M1380.276,1115.57l4.391-24.381c74.345-107.562,79.971-126.857,46.538-175.151
			c-9.575-13.83-26.992-22.476-34.092-24.434c6.815-2.527,14.398-4.53,21.477-6.084c7.057,3.315,13.546,6.573,18.578,10.931
			C1539.205,984.79,1380.276,1115.57,1380.276,1115.57z"/>
		<path style="fill:#FFB27D;" d="M1467.095,977.528c-29.107,2.013-33.137,31.838-33.137,31.838s-48.852,4.433-56.069,7.643
			c0,0,3.964-10.724,11.012-26.93c-6.37-6.263-27.303-15.579-41.163-19.859c-10.572,26.969-14.635,53.665-8.704,79.402
			c0.627,2.718,3.016,4.663,5.801,4.794c15.548,0.725,66.922,0.468,104.537-30.681l0.662-0.179
			c9.003-0.535,17.459-9.478,20.704-21.237c3.247-11.759,3.507-8.164,5.994-16.44
			C1479.219,977.602,1467.095,977.528,1467.095,977.528z"/>
		<path style="fill:#E8945B;" d="M1496.25,872.676c-23.753-0.635-41.894-24.026-41.894-24.026l41.171,1.675
			C1494.816,856.482,1494.499,864.788,1496.25,872.676z"/>
		<path style="fill:#FFB27D;" d="M1498.511,858.328c0,0-52.483,6.395-53.603-30.579c-1.12-36.976,20.756-60.926,35.357-60.653
			c29.115,0.546,33.918,12.313,37.294,24.563C1520.935,803.909,1522.673,855.722,1498.511,858.328z"/>
		<path style="fill:#FFFFFF;" d="M1484.474,837.017c0,0,1.144,4.611,12.638,3.761c0,0,9.65-0.71,9.295-5.788
			C1506.406,834.989,1497,831.484,1484.474,837.017z"/>
		<path style="fill:#35488B;" d="M1493.256,767.44c0,0-44.852-0.027-34.545,30.766c6.495,19.407-15.104,22.425-15.104,22.425
			l-10.394-31.107l6.511-24.234L1493.256,767.44z"/>
	</g>
	<g>
		<path style="fill:#FFB27D;" d="M2102.681,747.941c-11.175-18.56-18.112-101.413-26.177-123.604
			c-5.097-14.027-18.747-30.791-17.306-31.832c-14.524-8.563-53.819-12.682-53.819-12.682c0,0.028-0.01,0.056-0.01,0.083
			c-1.533-0.32-3.059-0.64-4.527-0.932c-4.711-0.949-9.157-3.697-9.688-8.472c-0.018-0.237-0.045-0.485-0.072-0.723
			c-0.603-5.87-0.73-11.868-0.658-17.072c-0.009-0.072-0.009-0.146,0-0.218c0.129-8.5,0.777-14.809,0.777-14.809l-0.156-0.018
			l-50.943-8.19c-0.693,15.904-1.616,27.744-2.593,36.573c-0.739,6.756-6.235,12.015-13.019,12.426
			c-1.014,0.055-2.045,0.118-3.067,0.191v-0.009c0,0-32.84-1.278-45.402,2.557c-0.986,0.301-2.054,0.747-3.194,1.323
			c0.762,0.799-120.938,122.775-117.799,136.903c3.14,14.128,56.541,94.345,75.902,109.127h19.38c0,0-42.953-97.963-43.51-105.904
			c-0.815-11.627,108.007-76.694,108.007-88.556c0-4.314,30.34-5.618,50.183-5.466c21.011,0.162,60.581-10.813,60.581-10.813
			s17.105,129.623,38.724,168.07c17.048,30.318,92.351,108.001,92.351,108.001l15.884-14.088
			C2172.528,879.81,2129.748,792.894,2102.681,747.941z"/>
		<path style="fill:#C65447;" d="M1948.494,1246.813c9.193,90.54-1.944,209.097-1.944,209.097h-31.196
			c-47.108-123.897-48.523-201.628-51.208-230.815c-1.461-15.904-22.934-79.474-42.206-140.615
			c-16.105-51.053-30.657-100.417-30.758-118.913c-0.21-42.389,42.023-110.379,42.023-110.379s60.685,23.409,98.135,46.535
			c12.499,7.724,22.066,15.273,25.336,21.674c8.682,17.026,15.117,138.561-7.989,212.803c-13.905,44.699-6.783,67.623-6.783,67.623
			C1944.789,1216.869,1946.934,1231.431,1948.494,1246.813z"/>
		<path style="fill:#B2443B;" d="M1948.687,1136.199c-13.905,44.699-6.783,67.623-6.783,67.623
			c2.886,13.047,5.03,27.608,6.591,42.991l-126.555-162.334c-16.105-51.053-30.657-100.417-30.758-118.913
			c-0.21-42.389,42.023-110.379,42.023-110.379s60.685,23.409,98.135,46.535c12.499,7.724,22.066,15.273,25.336,21.674
			C1965.357,940.423,1971.793,1061.957,1948.687,1136.199z"/>
		<path style="fill:#2B478B;" d="M1915.352,1455.912c0,0-1.767,20.348-4.383,24.534c-2.617,4.187-13.605,18.315-26.165,23.025
			c-12.56,4.709-48.491,2.27-51.282,15.325h126.639c0,0,1.742-19.568-3.142-32.447c-4.884-12.881-10.466-30.438-10.466-30.438
			H1915.352z"/>
		<path style="fill:#2B478B;" d="M2127.058,1451.325c0,0,14.16,19.354,17.649,27.028c3.488,7.675,26.508,40.17,23.723,40.443
			c-2.785,0.274-64.19,0-64.19,0s-6.28-15.325-5.583-25.792c0.698-10.466-8.372-30.333-6.628-41.68
			C2093.773,1439.979,2127.058,1451.325,2127.058,1451.325z"/>
		<path style="fill:#C65447;" d="M2127.058,1451.325h-35.029c0,0-136.59-197.46-141.289-247.665
			c-5.871-62.784-49.744-310.606-49.744-310.606l140.117-43.621c0,0,12.245,31.491,22.512,63.245
			c4.47,13.847,8.562,27.744,11.104,39.1c5.61,25.067-10.184,119.783-20.963,187.121c-5.327,33.165-9.43,59.696-9.158,67.985
			C2045.424,1232.002,2091.475,1235.257,2127.058,1451.325z"/>
		<path style="fill:#2B478B;" d="M1939.402,543.218c-0.076,1.267-0.153,2.499-0.238,3.689
			C1939.241,545.717,1939.326,544.484,1939.402,543.218z"/>
		<path style="fill:#2B478B;" d="M1939.7,537.99c-0.068,1.352-0.145,2.67-0.221,3.961
			C1939.556,540.66,1939.623,539.342,1939.7,537.99z"/>
		<path style="fill:#2B478B;" d="M1940.117,529.474c-0.043,0.994-0.086,1.973-0.137,2.932c0.043-0.959,0.085-1.938,0.128-2.932
			H1940.117z"/>
		<path style="fill:#2B478B;" d="M2060.672,882.437c4.564,13.728-61.361,21.751-134.529,20.782
			c-20.672-0.273-39.891-2.788-55.726-6.894c-33.491-8.661-51.919-24.421-37.214-41.132c4.183-4.752,50.559-71.12,50.559-71.12
			c2.736-5.94-0.229-25.414-14.391-71.688c-5.797-18.921,1.76-30.693,4.463-38.198c0,0,0-0.009,0.008-0.017
			c0.927-2.61,1.284-4.702,0.289-6.41c-6.332-10.948-15.479-21.505-23.758-29.92c-10.642-10.837-19.872-18.105-19.872-18.105
			s27.157-29.597,42.338-37.204c15.641,16.397,49.563,45.772,92.165,46.105c36.754,0.28,72.463-20.426,94.206-36.133
			c1.632,0.959,2.958,1.98,3.868,3.051c13.582,15.938,17.458,44.693,17.458,44.693s-43.716,24.122-42.934,31.977
			c2.169,21.642,4.216,27.973,3.265,35.699l-0.009,0.076c-0.341,2.713-1.054,5.611-2.261,9.41
			c-7.455,23.418-23.596,59.585-19.566,71.766C2020.076,792.336,2054.127,862.725,2060.672,882.437z"/>
		<path style="fill:#FFB27D;" d="M1876.035,581.204c0.705-0.213,1.471-0.417,2.295-0.595c-0.824,0.188-1.598,0.391-2.304,0.604
			L1876.035,581.204z"/>
		<path style="fill:#FFB27D;" d="M1993.505,575.322c1.063,1.088,2.423,1.955,3.919,2.593
			C1995.928,577.277,1994.576,576.42,1993.505,575.322z"/>
		<path style="fill:#FFB27D;" d="M1997.424,577.915c0.543,0.229,1.104,0.434,1.683,0.612
			C1998.528,578.357,1997.967,578.152,1997.424,577.915z"/>
		<path style="fill:#FFB27D;" d="M2172.528,879.81c0,0,26.775,6.931,30.439,10.67c3.662,3.738,14.156,32.774,10.466,33.043
			c-19.188,1.397-29.306-8.896-29.306-8.896c-11.6-12.766-28.932-14.803-28.071-24.146
			C2156.918,881.137,2172.528,879.81,2172.528,879.81z"/>
		<path style="fill:#FFB27D;" d="M1830.93,828.565c0,0-19.387,24.487-19.387,28.937c0,4.447,3.925,23.024,8.635,23.285
			c4.709,0.263,6.279-15.175,9.941-18.053c3.664-2.878,16.746-8.289,18.578-13.302c1.831-5.014,1.612-20.867,1.612-20.867H1830.93z"
			/>
		<path style="fill:#E8945B;" d="M1937.694,564.473c24.065-3.095,53.362-26.814,53.362-26.814
			c-17.1-9.276-31.936-10.171-43.457-6.984c-2.747,0.758-5.313,1.744-7.678,2.913L1937.694,564.473z"/>
		<g>
			<path style="fill:#FFB27D;" d="M1928.973,541.146c0,0,59.523,19.864,71.324-17.395c11.8-37.259,27.43-59.788-10.076-74.046
				c-37.505-14.26-49.428-2.393-56.392,9.086C1926.865,470.27,1913.793,535.017,1928.973,541.146z"/>
			<path style="fill:#FFFFFF;" d="M1950.33,524.75c0,0-2.196,4.323-13.434,0.837c0,0-9.436-2.925-7.915-7.895
				C1928.981,517.692,1939.143,516.368,1950.33,524.75z"/>
		</g>
		<path style="fill:#C65447;" d="M2088.689,453.671c-6.668-8.564,15.22-26.228-29.244-47.462
			c-33.727-16.106-44.18,8.291-47.262,21.016c-20.055-11.445-52.787-44.414-73.662-22.936c-24.993,25.715,2.115,48.35,2.115,48.35
			c9.48,6.904,14.085,4.995,27.943,8.04c13.859,3.044,5.007,19.08,6.089,24.488s10.541,16.343,23.357,10.819
			c12.817-5.522,11.343,15.591-0.842,19.934c-3.472,1.238-7.078,20.65-2.046,21.47c4.23,0.688,19.506,0.832,21.059-11.631
			c0.921-7.398,10.322-11.263,20.289-18.904c6.896,6.56,16.593,9.907,21.939,9.141c7.875-1.129,7.959-7.446,24.83-18.704
			C2100.127,486.033,2095.356,462.235,2088.689,453.671z"/>
		<path style="fill:#233862;" d="M1870.416,896.328c-33.488-8.664-51.921-24.422-37.213-41.138c4.182-4.747,50.56-71.12,50.56-71.12
			S1896.189,859.016,1870.416,896.328z"/>
	</g>
	<g>
		<g>
			<path style="fill:#233862;" d="M2087.528,1518.868l-5.012-536.998c0,0-4.331-38.676-38.069-38.676
				c-36.003,0-38.069,38.676-38.069,38.676s0.519,3.343,4.211,3.343c3.87,0,4.508-3.343,4.508-3.343s1.593-29.817,29.351-29.817
				c26.012,0,29.351,29.817,29.351,29.817v536.998H2087.528z"/>
			<path style="fill:#233862;" d="M2069.17,1518.868h22.391l-1.995-23.415c0,0,0.191-3.252-4.332-3.437
				c-4.204-0.172-12.506-0.771-13.295,1.771C2071.245,1496.021,2069.17,1518.868,2069.17,1518.868z"/>
		</g>
		<path style="fill:#FFB27D;" d="M2044.17,914.737l-1.528,7.68c0,0-37.968-0.144-46.843,40.542c0,0-2.409,16.93,9.798,13.316
			c12.207-3.615,10.306-12.254,27.59-16.986c17.284-4.734,28.546-8.359,31.167-20.941l2.826-14.001L2044.17,914.737z"/>
		<path style="fill:#F99746;" d="M2178.422,581.784c0,0-10.043,39.513-18.706,75.64c-3.488,14.553-6.747,28.548-9.048,39.192
			c-2.346,10.938-3.68,18.343-3.168,19.163c7.531,12.226-6.227,86.77-17.109,113.839c-0.959,2.4-2.283,5.213-3.871,8.336
			c-15.219,29.835-55.736,88.393-55.736,88.393s-11.431,1.196-18.907-1.625c-6.236-2.364-10.499-9.988-10.499-9.988
			c3.624-5.833,18.286-74.726,37.148-113.354c8.07-16.524,19.957-169.839,35.588-190.482
			C2127.15,593.68,2178.422,581.784,2178.422,581.784z"/>
		<path style="fill:#ED7D2B;" d="M2147.5,715.779c7.531,12.226-6.227,86.77-17.109,113.839c-0.959,2.4-2.283,5.213-3.871,8.336
			c-14.543-64.338,9.559-155.479,9.559-155.479C2142.095,684.857,2146.988,714.959,2147.5,715.779z"/>
		<path style="fill:#0F2949;" d="M2252.88,1459.717c0,0,3.868,58.229-7.127,59.042c-1.462,0.109-55.771,0.109-55.771,0.109
			l-70.053-0.003c0,0,1.18-17.104,21.444-20.636c20.264-3.531,54.183-17.772,66.459-44.557
			C2220.747,1425.496,2252.88,1459.717,2252.88,1459.717z"/>
		<path style="fill:#163560;" d="M2358.242,1459.717c0,0,3.868,58.229-7.127,59.042c-1.463,0.109-55.771,0.109-55.771,0.109
			l-70.052-0.003c0,0,1.179-17.104,21.444-20.636c20.264-3.531,54.182-17.772,66.458-44.557
			C2326.109,1425.496,2358.242,1459.717,2358.242,1459.717z"/>
		<path style="fill:#2B478B;" d="M2256.197,1319.369c1.726,24.623,5.238,56.284,3.986,84.824
			c-1.752,39.905-3.016,73.559-3.016,73.559c-26.312,8.947-74.586-1.906-74.586-1.906s-17.124-100.85-31.229-181.354
			c-6.327-36.071-11.576-67.276-13.539-82.012c-6.346-47.629,6.756-300.868,6.756-300.868s71.193-45.63,100.608-22.103
			c29.406,23.518,47.512,46.507,0.119,304.19C2241.699,1213.246,2252.336,1264.217,2256.197,1319.369z"/>
		<path style="fill:#233862;" d="M2256.197,1319.369c1.726,24.623,4.9,64.028,3.648,92.567
			c-24.749-26.192-73.527-81.456-108.493-117.445c-6.327-36.071-11.576-67.276-13.539-82.012
			c-6.346-47.629,6.756-300.868,6.756-300.868s71.193-45.63,100.608-22.103c29.406,23.518,47.512,46.507,0.119,304.19
			C2241.699,1213.246,2252.336,1264.217,2256.197,1319.369z"/>
		<path style="fill:#2B478B;" d="M2208.906,916.762c0,0,6.395,253.5,16.384,300.501c9.989,46.999,62.131,262.159,62.131,262.159
			s48.875,4.451,74.418-6.49c0,0-1.626-99.646-10.293-158.191c-8.096-54.693-22.616-104.699-20.534-124.464
			c27.453-260.561,7.634-282.089-23.499-303.284C2276.381,865.797,2208.906,916.762,2208.906,916.762z"/>
		<path style="fill:#FFB27D;" d="M2305.524,938.955c0,0-16.935,33.981,15.618,59.95c0,0,14.114,9.653,16.277-2.892
			c2.163-12.546-0.332-8.175,3.074-25.769c3.406-17.594-0.951-35.787-11.072-43.707L2305.524,938.955z"/>
		<path style="fill:#FFB27D;" d="M2162.777,524.344c0,0,19.546,29.709,15.648,57.435l28.924,69.688l52.184-79.777
			c0,0-27.566-30.006-37.856-70.91L2162.777,524.344z"/>
		<path style="fill:#FFB27D;" d="M2154.205,549.692c0,0,71.178,3.081,72.473-39.647c1.293-42.73,20.529-71.155-32.709-74.91
			c-43.78-3.088-58.334,15.169-62.235,29.325C2127.833,478.618,2127.824,547.402,2154.205,549.692z"/>
		<path style="fill:#F99746;" d="M2328.459,928.977c-15.293,1.424-36.346,3.186-61.891,4.793c-5.103,0.319-10.381,0.639-15.83,0.94
			c-77.127,4.318-107.785-8.171-107.785-8.171s-2.045-1.651-1.396-10.709c3.351-46.644,13.256-60.42,12.06-69.284
			c-2.684-19.922-51.016-182.493-51.016-182.493s-0.932-51.354,56.184-75.457c5.889-2.492,12.38-4.683,19.555-6.5
			c2.502,6.646,9.358,17.748,26.896,15.702c25.929-3.021,44.389-18.305,52.304-26.146c1.434,0,2,0.046,2,0.046
			c1.936,5.459,3.441,11.156,4.783,16.944c4.684,20.186,7.423,41.421,19.813,57.298c12.225,15.675,22.687,31.132,31.615,46.25
			c7.432,12.581,13.805,24.935,19.255,36.967C2385.564,840.902,2346.453,927.287,2328.459,928.977z"/>
		<path style="fill:#ED7D2B;" d="M2328.459,928.977c-15.293,1.424-36.346,3.186-61.891,4.793
			c-7.449-125.542,43.704-246.118,43.704-246.118c1.927,1.352,3.752,2.867,5.478,4.537c8.91,8.655,15.119,21.501,19.255,36.967
			C2350.242,786.079,2337.488,878.563,2328.459,928.977z"/>
		<path style="fill:#C8D9E8;" d="M2131.261,508.938c0,0-13.856,54.972,9.658,62.714c23.515,7.741,85.94,1.539,85.915-65.858
			c0,0-32.76,19.538-48.408,19.044s-25.749-9.523-40.211-2.47C2138.215,522.368,2132.924,522.017,2131.261,508.938z"/>
		<path style="fill:#F99746;" d="M2259.533,571.69c0,0,49.754,1.119,76.042,35.323c20.143,26.209,41.437,166.839,41.437,188.015
			c0,21.175-22.678,138.033-35.375,150.732c0,0-8.217,2.118-19.185,0c-11.64-2.248-18.495-8.982-18.495-8.982
			s6.318-130.104,6.318-142.308c0-17.668-55.238-125.818-55.238-125.818S2226.389,617.181,2259.533,571.69z"/>
		<path style="fill:#C8D9E8;" d="M2223.33,448.424c-1.197-4.362-6.57-6.653-6.57-6.653c-40.089-17.461-69.377,1.644-69.377,1.644
			c24.571-32.982,83.871-26.058,96.361,3.691c20.395,48.573-16.91,58.688-16.91,58.688s-37.25-15.652-15.68-35.276
			c7.148-6.502,10.604-12.283,11.75-17.313l0,0l0,0C2223.286,451.527,2223.413,449.933,2223.33,448.424z"/>
		<path style="fill:#FFFFFF;" d="M2159.815,535.082c0,0-1.31,4.67-13.011,3.447c0,0-9.825-1.023-9.306-6.193
			C2137.499,532.336,2147.205,529.051,2159.815,535.082z"/>
	</g>
	<path style="fill:#2E3552;" d="M2745.338,1526.041H248.341c-1.615,0-2.937-1.322-2.937-2.938v-1.247
		c0-1.615,1.321-2.938,2.937-2.938h2496.997c1.615,0,2.938,1.322,2.938,2.938v1.247
		C2748.275,1524.719,2746.953,1526.041,2745.338,1526.041z"/>
</g>
</svg>
